<svg xmlns="http://www.w3.org/2000/svg" version="1.1" xmlns:xlink="http://www.w3.org/1999/xlink" xmlns:svgjs="http://svgjs.dev/svgjs" width="1000" height="310" viewBox="0 0 1000 310"><g transform="matrix(1,0,0,1,-0.6060606060606233,0.3294845267481321)"><svg viewBox="0 0 396 123" data-background-color="#ffffff" preserveAspectRatio="xMidYMid meet" height="310" width="1000" xmlns="http://www.w3.org/2000/svg" xmlns:xlink="http://www.w3.org/1999/xlink"><g id="tight-bounds" transform="matrix(1,0,0,1,0.2400000000000091,-0.1307309573871578)"><svg viewBox="0 0 395.52 123.26146191477433" height="123.26146191477433" width="395.52"><g><svg viewBox="0 0 644.9665513051248 200.99999999999994" height="123.26146191477433" width="395.52"><g><rect width="8.30708323679369" height="200.99999999999994" x="221.74629119579495" y="0" fill="#233565" opacity="1" stroke-width="0" stroke="transparent" fill-opacity="1" class="rect-o-0" data-fill-palette-color="primary" rx="1%" id="o-0" data-palette-color="#233565"></rect></g><g transform="matrix(1,0,0,1,251.79966562838365,0.4999999999999858)"><svg viewBox="0 0 393.1668856767412 199.99999999999997" height="199.99999999999997" width="393.1668856767412"><g><svg viewBox="0 0 393.1668856767412 199.99999999999997" height="199.99999999999997" width="393.1668856767412"><g><svg viewBox="0 0 393.1668856767412 199.99999999999997" height="199.99999999999997" width="393.1668856767412"><g transform="matrix(1,0,0,1,0,0)"><svg width="393.1668856767412" viewBox="2.90000057220459 -35 149.6000213623047 73.0999984741211" height="199.99999999999997" data-palette-color="#233565"><svg></svg><svg></svg><g class="undefined-text-0" data-fill-palette-color="primary" id="text-0"><path xmlns="http://www.w3.org/2000/svg" d="M17.95 0h-11.35c-1 0-1.85-0.35-2.55-1.05-0.7-0.7-1.05-1.55-1.05-2.55v0-7.75l4.65 1.05v3.85c0 0.5 0.177 0.923 0.53 1.27 0.347 0.353 0.753 0.53 1.22 0.53v0h5.7c0.5 0 0.927-0.177 1.28-0.53 0.347-0.347 0.52-0.77 0.52-1.27v0-8.8c0-0.5-0.173-0.927-0.52-1.28-0.353-0.347-0.78-0.52-1.28-0.52v0h-8.5c-1 0-1.85-0.35-2.55-1.05-0.7-0.7-1.05-1.55-1.05-2.55v0-10.75c0-1 0.35-1.85 1.05-2.55 0.7-0.7 1.55-1.05 2.55-1.05v0h11.35c1 0 1.85 0.35 2.55 1.05 0.7 0.7 1.05 1.55 1.05 2.55v0 5.4l-4.65-1.1v-1.45c0-0.5-0.173-0.927-0.52-1.28-0.353-0.347-0.78-0.52-1.28-0.52v0h-5.7c-0.467 0-0.873 0.173-1.22 0.52-0.353 0.353-0.53 0.78-0.53 1.28v0 5.05c0 0.5 0.177 0.923 0.53 1.27 0.347 0.353 0.753 0.53 1.22 0.53v0h8.55c1 0 1.85 0.35 2.55 1.05 0.7 0.7 1.05 1.55 1.05 2.55v0 14.5c0 1-0.35 1.85-1.05 2.55-0.7 0.7-1.55 1.05-2.55 1.05zM28.25 0h-4.7v-4.7h4.7zM48.2 0h-11.35c-1 0-1.85-0.35-2.55-1.05-0.7-0.7-1.05-1.55-1.05-2.55v0-7.75l4.65 1.05v3.85c0 0.5 0.173 0.923 0.52 1.27 0.353 0.353 0.763 0.53 1.23 0.53v0h5.7c0.5 0 0.927-0.177 1.28-0.53 0.347-0.347 0.52-0.77 0.52-1.27v0-8.8c0-0.5-0.173-0.927-0.52-1.28-0.353-0.347-0.78-0.52-1.28-0.52v0h-8.5c-1 0-1.85-0.35-2.55-1.05-0.7-0.7-1.05-1.55-1.05-2.55v0-10.75c0-1 0.35-1.85 1.05-2.55 0.7-0.7 1.55-1.05 2.55-1.05v0h11.35c1 0 1.85 0.35 2.55 1.05 0.7 0.7 1.05 1.55 1.05 2.55v0 5.4l-4.65-1.1v-1.45c0-0.5-0.173-0.927-0.52-1.28-0.353-0.347-0.78-0.52-1.28-0.52v0h-5.7c-0.467 0-0.877 0.173-1.23 0.52-0.347 0.353-0.52 0.78-0.52 1.28v0 5.05c0 0.5 0.173 0.923 0.52 1.27 0.353 0.353 0.763 0.53 1.23 0.53v0h8.55c1 0 1.85 0.35 2.55 1.05 0.7 0.7 1.05 1.55 1.05 2.55v0 14.5c0 1-0.35 1.85-1.05 2.55-0.7 0.7-1.55 1.05-2.55 1.05zM58.5 0h-4.7v-4.7h4.7z" fill="#233565" fill-rule="nonzero" stroke="none" stroke-width="1" stroke-linecap="butt" stroke-linejoin="miter" stroke-miterlimit="10" stroke-dasharray="" stroke-dashoffset="0" font-family="none" font-weight="none" font-size="none" text-anchor="none" style="mix-blend-mode: normal" data-fill-palette-color="primary" opacity="1"></path><path xmlns="http://www.w3.org/2000/svg" d="M14.5 38.05h-4.65v-30.35h-6.95v-4.65h18.55v4.65h-6.95zM29 38.05h-4.65v-35h15c0.967 0 1.8 0.35 2.5 1.05 0.7 0.7 1.05 1.55 1.05 2.55v0 10.75c0 1-0.35 1.85-1.05 2.55-0.7 0.7-1.533 1.05-2.5 1.05v0h-1.05l4.6 17.05h-4.6l-4.65-17.05h-4.65zM29 7.7v8.65h7.5c0.467 0 0.883-0.177 1.25-0.53 0.367-0.347 0.55-0.77 0.55-1.27v0-5.05c0-0.5-0.183-0.927-0.55-1.28-0.367-0.347-0.783-0.52-1.25-0.52v0zM50.15 38.1h-4.65l7.05-35h4.55l6.95 35h-4.65l-1.35-6.55h-6.65zM54.85 14.5l-2.55 12.45h4.95zM83.7 38.05h-11.35c-0.933 0-1.767-0.35-2.5-1.05-0.733-0.7-1.1-1.55-1.1-2.55v0-27.8c0-0.967 0.367-1.81 1.1-2.53 0.733-0.713 1.567-1.07 2.5-1.07v0h11.35c1.033 0 1.893 0.357 2.58 1.07 0.68 0.72 1.02 1.563 1.02 2.53v0 6.5l-4.65 1.05v-4.7c0-0.467-0.157-0.883-0.47-1.25-0.32-0.367-0.747-0.55-1.28-0.55v0h-5.7c-0.467 0-0.883 0.183-1.25 0.55-0.367 0.367-0.55 0.783-0.55 1.25v0 22.1c0 0.533 0.183 0.967 0.55 1.3 0.367 0.333 0.783 0.5 1.25 0.5v0h5.7c0.533 0 0.96-0.167 1.28-0.5 0.313-0.333 0.47-0.767 0.47-1.3v0-3.65l4.65-1.1v7.6c0 1-0.34 1.85-1.02 2.55-0.687 0.7-1.547 1.05-2.58 1.05zM95.65 38.05h-4.65v-35h4.65v23.35l9.25-23.35h4.65l-6.95 17.5 6.95 17.5h-4.65l-4.6-11.65zM130.85 38.05h-18.6v-35h18.6v4.6h-13.95v8.7h9.3l-1.05 4.65h-8.25v12.4h13.95zM138.6 38.05h-4.65v-35h15c0.967 0 1.8 0.35 2.5 1.05 0.7 0.7 1.05 1.55 1.05 2.55v0 10.75c0 1-0.35 1.85-1.05 2.55-0.7 0.7-1.533 1.05-2.5 1.05v0h-1.05l4.6 17.05h-4.6l-4.65-17.05h-4.65zM138.6 7.7v8.65h7.5c0.467 0 0.883-0.177 1.25-0.53 0.367-0.347 0.55-0.77 0.55-1.27v0-5.05c0-0.5-0.183-0.927-0.55-1.28-0.367-0.347-0.783-0.52-1.25-0.52v0z" fill="#233565" fill-rule="nonzero" stroke="none" stroke-width="1" stroke-linecap="butt" stroke-linejoin="miter" stroke-miterlimit="10" stroke-dasharray="" stroke-dashoffset="0" font-family="none" font-weight="none" font-size="none" text-anchor="none" style="mix-blend-mode: normal" data-fill-palette-color="primary" opacity="1"></path></g></svg></g></svg></g></svg></g></svg></g><g transform="matrix(1,0,0,1,0,0.5)"><svg viewBox="0 0 199.99999999999994 199.99999999999994" height="199.99999999999994" width="199.99999999999994"><g><svg xmlns="http://www.w3.org/2000/svg" xmlns:xlink="http://www.w3.org/1999/xlink" xml:space="preserve" version="1.1" style="shape-rendering:geometricPrecision;text-rendering:geometricPrecision;image-rendering:optimizeQuality;" viewBox="16.25 16.25 300.5 300.5" x="0" y="0" fill-rule="evenodd" clip-rule="evenodd" height="199.99999999999994" width="199.99999999999994" class="icon-icon-0" data-fill-palette-color="accent" id="icon-0"><g fill="#8bd8bc" data-fill-palette-color="accent"><path class="" d="M23 173c-9 0-9-13 0-13l23 0c3-62 52-111 114-114l0-23c0-9 13-9 13 0l0 23c62 3 111 52 115 114l22 0c9 0 9 13 0 13l-22 0c-4 62-53 111-115 115l0 22c0 9-13 9-13 0l0-22c-62-4-111-53-114-115l-23 0z m144-114c-60 0-108 48-108 108 0 59 48 107 108 107 59 0 107-48 107-107 0-60-48-108-107-108z m0 5c57 0 103 46 103 103 0 57-46 103-103 103-57 0-103-46-103-103 0-57 46-103 103-103z m0 13c-50 0-90 40-90 90 0 49 40 89 90 89 49 0 89-40 89-89 0-50-40-90-89-90z m0 17c40 0 72 33 72 73 0 40-32 72-72 72-40 0-73-32-73-72 0-40 33-73 73-73z m0 13c-33 0-60 27-60 60 0 32 27 59 60 59 32 0 59-27 59-59 0-33-27-60-59-60z m0 5c30 0 54 25 54 55 0 30-24 54-54 54-30 0-55-24-55-54 0-30 25-55 55-55z m0 14c-23 0-41 18-41 41 0 22 18 41 41 41 22 0 41-19 41-41 0-23-19-41-41-41z" fill="#8bd8bc" fill-rule="nonzero" data-fill-palette-color="accent"></path></g></svg></g></svg></g></svg></g><defs></defs></svg><rect width="395.52" height="123.26146191477433" fill="none" stroke="none" visibility="hidden"></rect></g></svg></g></svg>